# cube.obj — GAMES101 p3 测试模型（L10/L11）
# 仅包含 v（顶点）与 f（三角面）子集，1-based 索引。
# 24 个顶点：立方体每面独立顶点（平法线可由面叉积恢复）。
o cube
v -0.5 -0.5  0.5
v  0.5 -0.5  0.5
v  0.5  0.5  0.5
v -0.5  0.5  0.5
v  0.5 -0.5 -0.5
v -0.5 -0.5 -0.5
v -0.5  0.5 -0.5
v  0.5  0.5 -0.5
v -0.5  0.5  0.5
v  0.5  0.5  0.5
v  0.5  0.5 -0.5
v -0.5  0.5 -0.5
v -0.5 -0.5 -0.5
v  0.5 -0.5 -0.5
v  0.5 -0.5  0.5
v -0.5 -0.5  0.5
v  0.5 -0.5  0.5
v  0.5  0.5  0.5
v  0.5  0.5 -0.5
v  0.5 -0.5 -0.5
v -0.5 -0.5 -0.5
v -0.5  0.5 -0.5
v -0.5  0.5  0.5
v -0.5 -0.5  0.5
f 1 2 3
f 1 3 4
f 5 6 7
f 5 7 8
f 9 10 11
f 9 11 12
f 13 14 15
f 13 15 16
f 17 18 19
f 17 19 20
f 21 22 23
f 21 23 24
